<?xml version="1.0" standalone="no"?>
<!DOCTYPE svg PUBLIC "-//W3C//DTD SVG 20010904//EN"
 "http://www.w3.org/TR/2001/REC-SVG-20010904/DTD/svg10.dtd">
<svg version="1.0" xmlns="http://www.w3.org/2000/svg"
 width="880.000000pt" height="880.000000pt" viewBox="0 0 880.000000 880.000000"
 preserveAspectRatio="xMidYMid meet">
<metadata>
Created by potrace 1.11, written by Peter Selinger 2001-2013
</metadata>
<g transform="translate(0.000000,880.000000) scale(0.100000,-0.100000)"
fill="#000000" stroke="none">
<path d="M1321 8788 c-328 -37 -606 -285 -693 -618 l-22 -85 0 -3685 0 -3685
22 -85 c82 -314 328 -548 642 -611 53 -11 636 -13 3135 -13 2878 0 3075 1
3145 17 157 36 291 111 404 224 112 113 177 228 218 383 l22 85 1 3675 c0
3019 -3 3687 -14 3740 -63 312 -295 557 -606 641 l-80 22 -3055 1 c-1680 1
-3084 -2 -3119 -6z"/>
</g>
</svg>
