<svg width="27" height="26" viewBox="0 0 27 26" fill="none" xmlns="http://www.w3.org/2000/svg">
<path fill-rule="evenodd" clip-rule="evenodd" d="M26.2015 12.9875C26.2015 16.3919 24.8491 19.657 22.4417 22.0643C20.0344 24.4716 16.7694 25.824 13.3649 25.824C9.96043 25.824 6.6954 24.4716 4.28807 22.0643C1.88074 19.657 0.52832 16.3919 0.52832 12.9875C0.52832 9.58299 1.88074 6.31795 4.28807 3.91063C6.6954 1.5033 9.96043 0.150879 13.3649 0.150879C16.7694 0.150879 20.0344 1.5033 22.4417 3.91063C24.8491 6.31795 26.2015 9.58299 26.2015 12.9875ZM19.8313 8.12561C19.7167 8.01139 19.5802 7.92146 19.4301 7.8612C19.2799 7.80093 19.1191 7.77157 18.9574 7.77487C18.7956 7.77816 18.6361 7.81405 18.4885 7.88038C18.341 7.94671 18.2083 8.04212 18.0984 8.16091L12.5257 15.2611L9.16734 11.9012C8.93921 11.6886 8.63748 11.5729 8.32571 11.5784C8.01394 11.5839 7.71647 11.7102 7.49598 11.9307C7.27549 12.1511 7.1492 12.4486 7.14369 12.7604C7.13819 13.0722 7.25392 13.3739 7.46649 13.602L11.7122 17.8493C11.8266 17.9635 11.9628 18.0534 12.1127 18.1138C12.2626 18.1742 12.4231 18.2038 12.5847 18.2008C12.7463 18.1978 12.9056 18.1623 13.0531 18.0964C13.2007 18.0305 13.3335 17.9356 13.4435 17.8172L19.849 9.81041C20.0674 9.58336 20.188 9.27974 20.185 8.96473C20.182 8.64973 20.0556 8.34846 19.8329 8.12561H19.8313Z" fill="#BEBEBE"/>
</svg>
