<svg width="27" height="27" viewBox="0 0 27 27" fill="none" xmlns="http://www.w3.org/2000/svg">
<path fill-rule="evenodd" clip-rule="evenodd" d="M26.2015 13.2922C26.2015 16.6966 24.8491 19.9617 22.4417 22.369C20.0344 24.7763 16.7694 26.1287 13.3649 26.1287C9.96043 26.1287 6.6954 24.7763 4.28807 22.369C1.88074 19.9617 0.52832 16.6966 0.52832 13.2922C0.52832 9.88768 1.88074 6.62264 4.28807 4.21532C6.6954 1.80799 9.96043 0.455566 13.3649 0.455566C16.7694 0.455566 20.0344 1.80799 22.4417 4.21532C24.8491 6.62264 26.2015 9.88768 26.2015 13.2922ZM19.8313 8.43029C19.7167 8.31608 19.5802 8.22615 19.4301 8.16589C19.2799 8.10562 19.1191 8.07626 18.9574 8.07955C18.7956 8.08285 18.6361 8.11873 18.4885 8.18506C18.341 8.25139 18.2083 8.34681 18.0984 8.4656L12.5257 15.5658L9.16734 12.2059C8.93921 11.9933 8.63748 11.8776 8.32571 11.8831C8.01394 11.8886 7.71647 12.0149 7.49598 12.2353C7.27549 12.4558 7.1492 12.7533 7.14369 13.0651C7.13819 13.3768 7.25392 13.6786 7.46649 13.9067L11.7122 18.154C11.8266 18.2682 11.9628 18.3581 12.1127 18.4185C12.2626 18.4789 12.4231 18.5085 12.5847 18.5055C12.7463 18.5025 12.9056 18.467 13.0531 18.4011C13.2007 18.3352 13.3335 18.2402 13.4435 18.1219L19.849 10.1151C20.0674 9.88805 20.188 9.58442 20.185 9.26942C20.182 8.95441 20.0556 8.65314 19.8329 8.43029H19.8313Z" fill="#F64C4C"/>
</svg>
