<svg width="21" height="21" viewBox="0 0 21 21" fill="none" xmlns="http://www.w3.org/2000/svg">
<path d="M10.7773 20.623C5.25434 20.623 0.777344 16.146 0.777344 10.623C0.777344 5.10005 5.25434 0.623047 10.7773 0.623047C16.3003 0.623047 20.7773 5.10005 20.7773 10.623C20.7773 16.146 16.3003 20.623 10.7773 20.623ZM10.7773 18.623C12.8991 18.623 14.9339 17.7802 16.4342 16.2799C17.9345 14.7796 18.7773 12.7448 18.7773 10.623C18.7773 8.50132 17.9345 6.46648 16.4342 4.96619C14.9339 3.4659 12.8991 2.62305 10.7773 2.62305C8.65561 2.62305 6.62078 3.4659 5.12049 4.96619C3.6202 6.46648 2.77734 8.50132 2.77734 10.623C2.77734 12.7448 3.6202 14.7796 5.12049 16.2799C6.62078 17.7802 8.65561 18.623 10.7773 18.623ZM9.77734 13.623H11.7773V15.623H9.77734V13.623ZM9.77734 5.62305H11.7773V11.623H9.77734V5.62305Z" fill="#F64C4C"/>
</svg>
