<svg width="15" height="15" viewBox="0 0 15 15" fill="none" xmlns="http://www.w3.org/2000/svg">
<path d="M7.66357 0.669922C3.79795 0.669922 0.663574 3.8043 0.663574 7.66992C0.663574 11.5355 3.79795 14.6699 7.66357 14.6699C11.5292 14.6699 14.6636 11.5355 14.6636 7.66992C14.6636 3.8043 11.5292 0.669922 7.66357 0.669922ZM7.66357 13.4824C4.4542 13.4824 1.85107 10.8793 1.85107 7.66992C1.85107 4.46055 4.4542 1.85742 7.66357 1.85742C10.8729 1.85742 13.4761 4.46055 13.4761 7.66992C13.4761 10.8793 10.8729 13.4824 7.66357 13.4824Z" fill="black" fill-opacity="0.56"/>
<path d="M6.91357 4.91992C6.91357 5.11883 6.99259 5.3096 7.13324 5.45025C7.2739 5.5909 7.46466 5.66992 7.66357 5.66992C7.86249 5.66992 8.05325 5.5909 8.1939 5.45025C8.33456 5.3096 8.41357 5.11883 8.41357 4.91992C8.41357 4.72101 8.33456 4.53024 8.1939 4.38959C8.05325 4.24894 7.86249 4.16992 7.66357 4.16992C7.46466 4.16992 7.2739 4.24894 7.13324 4.38959C6.99259 4.53024 6.91357 4.72101 6.91357 4.91992ZM8.03857 6.66992H7.28857C7.21982 6.66992 7.16357 6.72617 7.16357 6.79492V11.0449C7.16357 11.1137 7.21982 11.1699 7.28857 11.1699H8.03857C8.10732 11.1699 8.16357 11.1137 8.16357 11.0449V6.79492C8.16357 6.72617 8.10732 6.66992 8.03857 6.66992Z" fill="black" fill-opacity="0.56"/>
</svg>
