<svg width="15" height="18" viewBox="0 0 15 18" fill="none" xmlns="http://www.w3.org/2000/svg">
<path fill-rule="evenodd" clip-rule="evenodd" d="M2.50949 2.78473C3.82231 1.47191 5.60288 0.734375 7.45949 0.734375C9.3161 0.734375 11.0967 1.47191 12.4095 2.78473C13.7223 4.09755 14.4598 5.87812 14.4598 7.73473C14.4598 9.59134 13.7223 11.3719 12.4095 12.6847L7.45949 17.6347L2.50949 12.6847C1.8594 12.0347 1.34372 11.263 0.991896 10.4137C0.640068 9.56436 0.458984 8.65405 0.458984 7.73473C0.458984 6.81542 0.640068 5.90511 0.991896 5.05578C1.34372 4.20646 1.8594 3.43475 2.50949 2.78473ZM7.45949 9.73473C7.98992 9.73473 8.49863 9.52402 8.8737 9.14894C9.24878 8.77387 9.45949 8.26517 9.45949 7.73473C9.45949 7.2043 9.24878 6.69559 8.8737 6.32052C8.49863 5.94545 7.98992 5.73473 7.45949 5.73473C6.92906 5.73473 6.42035 5.94545 6.04528 6.32052C5.6702 6.69559 5.45949 7.2043 5.45949 7.73473C5.45949 8.26517 5.6702 8.77387 6.04528 9.14894C6.42035 9.52402 6.92906 9.73473 7.45949 9.73473Z" fill="#F64C4C"/>
</svg>
