<svg width="79" height="139" viewBox="0 0 79 139" fill="none" xmlns="http://www.w3.org/2000/svg">
<path d="M73.8433 37.5174L60.8105 37.5417L60.9848 130.83L74.0175 130.806L73.8433 37.5174Z" stroke="#6E7A99" stroke-miterlimit="10"/>
<path d="M63.3875 130.403C63.3953 134.627 59.5369 138.057 54.7756 138.069L9.41121 138.148C4.64466 138.158 0.779636 134.739 0.771751 130.518L0.603528 37.8676C0.595643 33.6412 4.45278 30.2085 9.21408 30.2019L54.5837 30.1192C59.345 30.1113 63.2127 33.5281 63.2179 37.7546L63.3875 130.403Z" fill="white" stroke="#6E7A99" stroke-miterlimit="10"/>
<path d="M50.8045 3.75671L47.6675 1.25977H47.6057L44.5358 3.73698L41.4369 1.2742H41.3055L38.2724 3.71596L35.2116 1.28339H35.0001L32.005 3.69755L28.9824 1.29522H28.6893L25.7377 3.67786L22.7519 1.3123H22.3852L19.469 3.66338L16.5226 1.32546H16.0784L13.2004 3.64502L10.2934 1.33729H10.0713L10.1357 36.9648L53.7574 36.886L53.6904 1.43587L50.8045 3.75671Z" fill="white" stroke="#6E7A99" stroke-linecap="round" stroke-linejoin="round"/>
<path d="M54.0801 73.9091C54.0809 74.383 53.9884 74.8525 53.8079 75.2907C53.6273 75.7288 53.3622 76.1271 53.0277 76.4629C52.6932 76.7986 52.2959 77.0651 51.8584 77.2473C51.4209 77.4294 50.9518 77.5236 50.4779 77.5245L13.4914 77.5876C13.0173 77.5891 12.5476 77.4972 12.109 77.317C11.6705 77.1368 11.2718 76.8718 10.9357 76.5374C10.5997 76.2029 10.3329 75.8055 10.1506 75.3678C9.96836 74.9301 9.87417 74.4608 9.87348 73.9867L9.82617 47.8239C9.82513 46.8665 10.2043 45.9479 10.8802 45.27C11.5562 44.5921 12.4736 44.2103 13.431 44.2086L50.4161 44.1428C51.3739 44.1411 52.2933 44.5196 52.9721 45.1953C53.651 45.871 54.0339 46.7885 54.0367 47.7463L54.0801 73.9091Z" fill="white" stroke="#6E7A99" stroke-miterlimit="10"/>
<path d="M37.4696 95.8405C37.5153 96.35 37.3578 96.8569 37.0314 97.2508C36.705 97.6446 36.2361 97.8935 35.7269 97.9432L29.0246 97.9602C28.5149 97.9096 28.0456 97.6608 27.7175 97.2676C27.3893 96.8743 27.2287 96.368 27.2702 95.8575V91.9478C27.2254 91.4387 27.3831 90.9325 27.7091 90.539C28.035 90.1454 28.503 89.8961 29.0114 89.8451L35.7138 89.8359C36.2223 89.8834 36.6917 90.1293 37.0201 90.5205C37.3485 90.9116 37.5095 91.4164 37.4682 91.9255L37.4696 95.8405Z" fill="#F7DDDD" stroke="#6E7A99" stroke-miterlimit="10"/>
<path d="M37.3419 110.877C37.3884 111.387 37.2314 111.894 36.9051 112.288C36.5788 112.682 36.1098 112.931 35.6006 112.98L28.8983 112.998C28.389 112.947 27.9202 112.698 27.5924 112.305C27.2646 111.912 27.104 111.406 27.1452 110.896V106.987C27.1004 106.478 27.2581 105.972 27.5841 105.578C27.91 105.185 28.378 104.936 28.8865 104.885L35.5888 104.877C36.0976 104.923 36.5674 105.169 36.8959 105.561C37.2245 105.952 37.3852 106.457 37.3432 106.966L37.3419 110.877Z" fill="#F7DDDD" stroke="#6E7A99" stroke-miterlimit="10"/>
<path d="M37.2138 126.122C37.2592 126.631 37.1016 127.138 36.7752 127.532C36.4489 127.926 35.9802 128.175 35.4712 128.225L28.7689 128.242C28.2593 128.191 27.7902 127.942 27.4621 127.549C27.1341 127.156 26.9733 126.649 27.0144 126.139V122.229C26.9693 121.72 27.1269 121.214 27.4529 120.82C27.7789 120.426 28.2471 120.177 28.7557 120.127L35.4581 120.117C35.9669 120.164 36.4366 120.41 36.7652 120.801C37.0937 121.193 37.2545 121.698 37.2125 122.207L37.2138 126.122Z" fill="#F7DDDD" stroke="#6E7A99" stroke-miterlimit="10"/>
<path d="M55.9692 95.8405C56.015 96.35 55.8575 96.8569 55.5311 97.2508C55.2046 97.6446 54.7358 97.8935 54.2266 97.9432L47.5243 97.9602C47.0147 97.9096 46.5455 97.6608 46.2176 97.2675C45.8897 96.8742 45.7293 96.3679 45.7711 95.8575V91.9478C45.7264 91.4387 45.8841 90.9325 46.21 90.539C46.536 90.1454 47.0039 89.8961 47.5124 89.8451L54.2148 89.8359C54.7233 89.883 55.1928 90.1289 55.521 90.5202C55.8493 90.9115 56.0099 91.4165 55.9679 91.9255L55.9692 95.8405Z" fill="#F7DDDD" stroke="#6E7A99" stroke-miterlimit="10"/>
<path d="M55.8464 110.877C55.8925 111.387 55.7349 111.894 55.4082 112.288C55.0814 112.682 54.612 112.931 54.1024 112.98L47.4001 112.998C46.8908 112.947 46.422 112.698 46.0942 112.305C45.7665 111.912 45.6059 111.406 45.647 110.896V106.987C45.6026 106.478 45.7606 105.972 46.0868 105.578C46.4129 105.185 46.881 104.936 47.3896 104.885L54.0919 104.877C54.6005 104.924 55.0699 105.17 55.3982 105.561C55.7265 105.952 55.8871 106.457 55.8451 106.966L55.8464 110.877Z" fill="#F7DDDD" stroke="#6E7A99" stroke-miterlimit="10"/>
<path d="M55.7156 126.122C55.7614 126.631 55.6039 127.138 55.2775 127.532C54.9511 127.926 54.4822 128.175 53.973 128.225L47.2707 128.242C46.7612 128.191 46.292 127.942 45.964 127.549C45.6359 127.156 45.4752 126.649 45.5162 126.139V122.229C45.4715 121.72 45.6292 121.214 45.9552 120.82C46.2811 120.427 46.749 120.178 47.2575 120.127L53.9599 120.117C54.4683 120.165 54.9375 120.411 55.2657 120.802C55.5939 121.193 55.7547 121.698 55.713 122.207L55.7156 126.122Z" fill="#F7DDDD" stroke="#6E7A99" stroke-miterlimit="10"/>
<path d="M18.9725 95.8405C19.0182 96.35 18.8608 96.8569 18.5343 97.2508C18.2079 97.6446 17.739 97.8935 17.2299 97.9432L10.5275 97.9602C10.0179 97.9096 9.5485 97.6608 9.22038 97.2676C8.89227 96.8743 8.73165 96.368 8.77308 95.8575V91.9478C8.72836 91.4387 8.88605 90.9325 9.212 90.539C9.53795 90.1454 10.0059 89.8961 10.5144 89.8451L17.2167 89.8359C17.7252 89.8834 18.1944 90.1294 18.5226 90.5205C18.8508 90.9117 19.0115 91.4166 18.9699 91.9255L18.9725 95.8405Z" fill="#F7DDDD" stroke="#6E7A99" stroke-miterlimit="10"/>
<path d="M18.8432 110.877C18.8893 111.387 18.732 111.894 18.4055 112.288C18.079 112.682 17.6099 112.931 17.1006 112.98L10.3983 112.998C9.88901 112.947 9.42017 112.698 9.09239 112.305C8.76462 111.912 8.60405 111.406 8.64515 110.896V106.987C8.60043 106.478 8.75812 105.972 9.08407 105.578C9.41002 105.185 9.87795 104.936 10.3864 104.885L17.0888 104.877C17.5974 104.924 18.0668 105.17 18.3951 105.561C18.7233 105.952 18.8839 106.457 18.8419 106.966L18.8432 110.877Z" fill="#F7DDDD" stroke="#6E7A99" stroke-miterlimit="10"/>
<path d="M18.7155 126.122C18.7613 126.632 18.6036 127.139 18.2769 127.533C17.9502 127.927 17.481 128.175 16.9716 128.225L10.2693 128.242C9.75971 128.191 9.29045 127.942 8.96255 127.549C8.63464 127.156 8.47433 126.649 8.51613 126.139V122.229C8.47177 121.72 8.62977 121.214 8.95593 120.82C9.28209 120.427 9.75013 120.178 10.2587 120.127L16.9611 120.117C17.4695 120.165 17.9387 120.411 18.2669 120.802C18.5951 121.193 18.7558 121.698 18.7142 122.207L18.7155 126.122Z" fill="#F7DDDD" stroke="#6E7A99" stroke-miterlimit="10"/>
<path d="M49.3915 8.01902L14.4775 8.08301L14.481 9.99646L49.395 9.93248L49.3915 8.01902Z" fill="#F6DDDD"/>
<path d="M49.4068 13.4973L14.4902 13.5671L14.4941 15.4793L49.4107 15.4094L49.4068 13.4973Z" fill="#F6DDDD"/>
<path d="M49.4205 18.9827L14.5078 19.0525L14.5116 20.9646L49.4243 20.8948L49.4205 18.9827Z" fill="#F6DDDD"/>
<path d="M49.4354 24.4724L14.5215 24.5339L14.5249 26.4461L49.4388 26.3845L49.4354 24.4724Z" fill="#F6DDDD"/>
<path d="M49.4521 29.9495L14.5381 30.0193L14.5419 31.9301L49.4559 31.8603L49.4521 29.9495Z" fill="#F6DDDD"/>
<path d="M77.8356 130.666C77.8461 131.839 76.2362 132.795 74.2571 132.797H73.78C71.8008 132.803 70.1949 131.854 70.1923 130.681L70.0254 38.0307C70.0254 36.8558 71.6287 35.9044 73.6052 35.8965H74.0836C76.0614 35.8965 77.666 36.844 77.6687 38.015L77.8356 130.666Z" fill="white" stroke="#6E7A99" stroke-miterlimit="10"/>
<path d="M17.3637 54.0254L16.8736 54.0239L16.0888 52.709C16.0651 52.669 16.0389 52.6124 16.0105 52.539L16.0009 52.5389C15.9849 52.5755 15.9576 52.632 15.9191 52.7084L15.1022 54.0183L14.6097 54.0168L15.7626 52.2967L14.7113 50.5889L15.2038 50.5905L15.9005 51.7975C15.9464 51.8774 15.9868 51.9572 16.0216 52.037L16.0312 52.037C16.0825 51.932 16.1274 51.8492 16.1658 51.7888L16.8987 50.5958L17.3601 50.5972L16.2766 52.2936L17.3637 54.0254ZM20.2516 54.0345L19.7615 54.033L18.9767 52.718C18.9529 52.6781 18.9268 52.6214 18.8983 52.548L18.8888 52.548C18.8727 52.5846 18.8455 52.6411 18.807 52.7175L17.99 54.0274L17.4976 54.0258L18.6505 52.3058L17.5992 50.598L18.0917 50.5995L18.7883 51.8066C18.8343 51.8864 18.8747 51.9662 18.9095 52.046L18.919 52.0461C18.9704 51.9411 19.0153 51.8583 19.0537 51.7979L19.7866 50.6049L20.248 50.6063L19.1645 52.3026L20.2516 54.0345ZM23.1394 54.0436L22.6493 54.042L21.8646 52.7271C21.8408 52.6872 21.8147 52.6305 21.7862 52.5571L21.7766 52.5571C21.7606 52.5937 21.7333 52.6502 21.6948 52.7266L20.8779 54.0365L20.3854 54.0349L21.5383 52.3149L20.487 50.6071L20.9795 50.6086L21.6762 51.8157C21.7221 51.8955 21.7625 51.9753 21.7973 52.0551L21.8069 52.0551C21.8582 51.9501 21.9031 51.8674 21.9416 51.8069L22.6745 50.6139L23.1358 50.6154L22.0523 52.3117L23.1394 54.0436ZM24.8645 52.8393L23.5592 52.8352L23.5602 52.5268L24.8654 52.5309L24.8645 52.8393ZM27.9876 54.0588L27.4975 54.0573L26.7127 52.7423C26.6889 52.7024 26.6628 52.6458 26.6344 52.5723L26.6248 52.5723C26.6088 52.6089 26.5815 52.6654 26.543 52.7418L25.7261 54.0517L25.2336 54.0501L26.3865 52.3301L25.3352 50.6223L25.8277 50.6238L26.5243 51.8309C26.5703 51.9107 26.6107 51.9906 26.6455 52.0704L26.6551 52.0704C26.7064 51.9654 26.7513 51.8826 26.7897 51.8222L27.5226 50.6292L27.984 50.6306L26.9005 52.3269L27.9876 54.0588ZM30.8754 54.0679L30.3854 54.0663L29.6006 52.7514C29.5768 52.7115 29.5507 52.6548 29.5222 52.5814L29.5127 52.5814C29.4966 52.618 29.4693 52.6745 29.4309 52.7509L28.6139 54.0608L28.1215 54.0592L29.2744 52.3392L28.2231 50.6314L28.7155 50.6329L29.4122 51.84C29.4582 51.9198 29.4986 51.9996 29.5334 52.0794L29.5429 52.0795C29.5943 51.9744 29.6391 51.8917 29.6776 51.8312L30.4105 50.6382L30.8719 50.6397L29.7884 52.336L30.8754 54.0679ZM33.7633 54.0769L33.2732 54.0754L32.4884 52.7605C32.4647 52.7206 32.4385 52.6639 32.4101 52.5905L32.4005 52.5905C32.3845 52.6271 32.3572 52.6836 32.3187 52.7599L31.5018 54.0698L31.0093 54.0683L32.1622 52.3483L31.1109 50.6404L31.6034 50.642L32.3001 51.8491C32.346 51.9289 32.3864 52.0087 32.4212 52.0885L32.4308 52.0885C32.4821 51.9835 32.527 51.9008 32.5655 51.8403L33.2983 50.6473L33.7597 50.6488L32.6762 52.3451L33.7633 54.0769Z" fill="#6676A5"/>
</svg>
