<svg width="23" height="17" viewBox="0 0 23 17" fill="none" xmlns="http://www.w3.org/2000/svg">
<path d="M0.03125 3.51466H9.78127L10.5313 5.01466H0.781252L0.03125 3.51466ZM1.03125 6.51466H10.7813L11.5313 8.01466H1.78125L1.03125 6.51466ZM17.2813 14.5147C18.1113 14.5147 18.7813 13.8447 18.7813 13.0147C18.7813 12.1847 18.1113 11.5147 17.2813 11.5147C16.4513 11.5147 15.7813 12.1847 15.7813 13.0147C15.7813 13.8447 16.4513 14.5147 17.2813 14.5147ZM18.7813 5.51466H16.2813V8.01466H20.7413L18.7813 5.51466ZM7.28126 14.5147C8.11127 14.5147 8.78127 13.8447 8.78127 13.0147C8.78127 12.1847 8.11127 11.5147 7.28126 11.5147C6.45126 11.5147 5.78126 12.1847 5.78126 13.0147C5.78126 13.8447 6.45126 14.5147 7.28126 14.5147ZM19.2813 4.01466L22.2813 8.01466V13.0147H20.2813C20.2813 14.6747 18.9413 16.0147 17.2813 16.0147C15.6213 16.0147 14.2813 14.6747 14.2813 13.0147H10.2813C10.2813 14.6747 8.93127 16.0147 7.28126 16.0147C5.62126 16.0147 4.28126 14.6747 4.28126 13.0147H2.28125V9.51467H4.28126V11.0147H5.04126C5.59126 10.4047 6.39126 10.0147 7.28126 10.0147C8.17127 10.0147 8.97127 10.4047 9.52127 11.0147H14.2813V2.01465H2.28125C2.28125 0.90465 3.17126 0.0146484 4.28126 0.0146484H16.2813V4.01466H19.2813Z" fill="#89D891"/>
</svg>
